<svg width="20" height="18" viewBox="0 0 20 18" fill="none" xmlns="http://www.w3.org/2000/svg">
<path d="M8.78906 17.3203L8.71094 17.2031L1.875 10.875C0.664062 9.74219 0 8.17969 0 6.53906V6.42188C0 3.6875 1.95312 1.30469 4.64844 0.796875C6.17188 0.484375 7.73438 0.835938 9.02344 1.73438C9.375 1.96875 9.6875 2.28125 10 2.59375C10.1562 2.4375 10.3125 2.24219 10.5078 2.08594C10.6641 1.96875 10.8203 1.85156 10.9766 1.73438C12.2266 0.835938 13.7891 0.484375 15.3125 0.796875C18.0469 1.30469 20 3.6875 20 6.42188V6.53906C20 8.17969 19.2969 9.74219 18.0859 10.875L11.25 17.2031L11.1719 17.3203C10.8594 17.5938 10.4297 17.7891 10 17.7891C9.53125 17.7891 9.14062 17.5938 8.78906 17.3203ZM9.33594 4.66406C9.29688 4.66406 9.29688 4.66406 9.29688 4.625L8.59375 3.84375C7.69531 2.82812 6.32812 2.39844 5 2.63281C3.16406 2.98438 1.875 4.58594 1.875 6.42188V6.53906C1.875 7.67188 2.30469 8.72656 3.125 9.46875L10 15.8359L16.8359 9.46875C17.6562 8.72656 18.125 7.67188 18.125 6.53906V6.42188C18.125 4.58594 16.7969 2.98438 14.9609 2.63281C13.6328 2.39844 12.2656 2.82812 11.3672 3.84375L10.6641 4.625C10.6641 4.66406 10.6641 4.66406 10.625 4.70312C10.4688 4.85938 10.2344 4.97656 10 4.97656C9.72656 4.97656 9.49219 4.85938 9.33594 4.70312V4.66406Z" fill="#FAFAFA"/>
</svg>
