<svg version="1.1" id="Layer_1" xmlns="http://www.w3.org/2000/svg" xmlns:xlink="http://www.w3.org/1999/xlink" x="0px" y="0px"
	 width="100%" viewBox="0 0 260 335" enable-background="new 0 0 260 335" xml:space="preserve">

<path fill="#983233" opacity="1.000000" stroke="none" 
	d="
M160.551819,38.493832 
	C163.165176,42.603191 166.681396,46.257626 167.571152,50.467205 
	C169.894882,61.461010 176.092636,69.610573 183.596756,77.451767 
	C195.211090,89.587769 203.740936,103.834579 210.576309,119.181656 
	C215.096191,129.329865 220.495636,139.085541 225.041458,149.223160 
	C232.043655,164.838730 239.407288,180.355209 245.267334,196.406677 
	C257.039734,228.652893 258.963837,262.288849 233.699707,288.600983 
	C218.962875,303.949097 200.036972,312.872620 179.769318,318.758240 
	C159.817108,324.552307 139.328705,327.621735 118.607018,327.012268 
	C95.318863,326.327362 72.913940,320.722565 53.187618,307.978027 
	C35.620251,296.628357 21.845390,280.904083 14.495704,261.382690 
	C7.360037,242.429733 5.411101,222.199921 14.339355,202.915436 
	C21.878525,186.631287 30.554651,170.872833 38.760597,154.898682 
	C40.202805,152.091202 42.036617,149.467987 43.302723,146.589508 
	C56.876595,115.729561 75.444328,87.594490 91.640427,58.170258 
	C98.685677,45.370831 107.017029,33.271370 114.944679,20.970276 
	C117.429596,17.114519 119.056213,11.937899 125.876335,12.038184 
	C123.601486,18.186630 121.320175,23.955503 119.390427,29.839672 
	C118.890572,31.363808 119.491837,33.249062 119.587326,34.968437 
	C120.803169,33.665298 122.488838,32.563259 123.148506,31.022058 
	C125.297081,26.002329 127.070801,20.822147 129.340469,14.765141 
	C131.867981,19.133841 133.791351,22.680954 135.961502,26.070044 
	C136.590836,27.052853 137.927170,27.582922 138.939407,28.320538 
	C139.172623,26.959595 139.981873,25.355431 139.529465,24.283998 
	C138.248596,21.250566 136.410065,18.456619 134.883942,15.520138 
	C134.460907,14.706154 134.361435,13.724009 134.104614,12.786559 
	C142.917130,21.380766 151.587479,29.836325 160.551819,38.493832 
M71.072746,247.233719 
	C71.417641,242.693146 71.802116,238.154968 72.076965,233.610153 
	C72.138443,232.593491 71.815544,231.553589 71.669609,230.524384 
	C70.571823,230.946716 69.051071,231.062683 68.472641,231.861221 
	C67.540573,233.147934 66.678947,234.912033 66.753929,236.426620 
	C67.047325,242.353012 67.927773,248.251312 68.192604,254.177826 
	C68.458450,260.126953 68.251053,266.097229 68.251053,272.058228 
	C65.473892,270.079407 63.738518,268.096863 62.343513,265.898376 
	C54.742329,253.919037 48.808193,241.431778 50.911587,226.611572 
	C51.589195,221.837280 52.337578,217.064346 52.724617,212.264267 
	C52.808731,211.221115 51.482452,210.064224 50.805767,208.959702 
	C50.117275,209.891556 49.042442,210.737991 48.813881,211.771545 
	C48.169250,214.686600 48.027557,217.711182 47.412739,220.634781 
	C43.607216,238.730835 49.557709,254.365112 59.423065,269.065643 
	C63.640186,275.349670 70.135521,280.229034 71.337601,288.402374 
	C71.473297,289.325043 72.194031,290.200836 72.763466,291.014404 
	C77.815994,298.233002 82.668076,305.610382 88.084564,312.546295 
	C90.115456,315.146912 93.387177,316.857544 96.306816,318.620056 
	C96.907990,318.982941 98.459946,317.770844 99.573677,317.284668 
	C98.932343,316.472626 98.395859,315.540680 97.630058,314.870972 
	C95.304817,312.837402 92.460754,311.242462 90.597626,308.866058 
	C86.190445,303.244751 82.249107,297.259277 78.089378,291.442535 
	C73.556267,285.103638 71.822716,278.223907 72.259743,270.311005 
	C72.666512,262.945862 71.606873,255.499771 71.072746,247.233719 
M174.104904,270.628143 
	C169.084930,273.360199 164.066193,276.094513 159.044052,278.822601 
	C157.887329,279.450928 156.490082,279.841827 155.634155,280.748505 
	C155.034271,281.383972 155.165756,282.709900 154.970627,283.727448 
	C155.870850,283.841400 156.830170,284.217072 157.662262,284.029236 
	C167.048325,281.910370 174.544724,276.549988 181.266830,269.961456 
	C189.878220,261.521240 191.023712,253.288574 184.763062,243.019104 
	C182.434540,239.199585 179.100998,235.977722 176.891724,232.103561 
	C171.772614,223.126877 162.838928,215.757324 164.980759,203.616058 
	C166.508896,194.953598 162.905228,188.410385 155.637482,183.680038 
	C154.259079,182.782883 152.818848,181.699127 151.960526,180.349533 
	C150.627548,178.253555 148.937073,175.882462 148.862534,173.580551 
	C148.615021,165.937881 149.097778,158.274124 149.107010,150.618225 
	C149.108688,149.223404 148.200699,147.827484 147.712631,146.432068 
	C146.833572,147.792603 145.296219,149.102875 145.187851,150.522247 
	C144.681686,157.152115 144.684784,163.819031 144.284378,170.459320 
	C143.888428,177.025650 145.533493,182.467880 151.602173,185.934631 
	C159.495499,190.443756 162.269913,197.198822 160.911148,206.135254 
	C160.006195,212.087112 161.609940,217.308914 165.579865,222.330231 
	C171.330582,229.603958 176.215164,237.580841 181.239120,245.405518 
	C186.210114,253.147690 185.448196,259.494781 179.079041,266.143494 
	C177.702103,267.580872 176.133896,268.835052 174.104904,270.628143 
M116.869423,89.630096 
	C116.869141,87.632957 117.102386,85.596397 116.774597,83.654541 
	C116.598534,82.611519 115.458946,81.731148 114.754135,80.777390 
	C114.111076,81.734558 112.978378,82.657005 112.907623,83.654755 
	C112.555038,88.626404 112.086739,93.643440 112.407753,98.595985 
	C112.830292,105.114647 110.643417,109.969963 105.849129,114.425049 
	C97.786621,121.917122 94.123940,140.342178 99.153328,150.051590 
	C104.945671,161.233871 104.418114,171.215439 96.606323,181.109024 
	C88.200813,191.754578 89.449074,204.237946 90.843109,216.524094 
	C91.086662,218.670624 93.270302,220.710175 94.842163,222.557236 
	C96.111153,224.048401 97.731537,225.284241 99.345375,226.421387 
	C100.273796,227.075562 101.499298,227.308121 102.591064,227.730469 
	C102.652161,226.511505 103.215569,224.950836 102.668007,224.145950 
	C101.584869,222.553802 99.803574,221.457016 98.467979,220.010406 
	C97.162300,218.596268 95.213455,217.114883 94.990875,215.467865 
	C93.411171,203.778870 92.879051,192.189560 100.874565,182.116547 
	C109.028214,171.844284 109.240562,161.031082 103.398865,149.502487 
	C98.736778,140.301849 101.460197,123.888329 109.015831,117.077972 
	C114.873970,111.797653 117.340164,105.741257 116.726906,98.076424 
	C116.528748,95.599770 116.768990,93.088036 116.869423,89.630096 
M125.745956,71.839905 
	C124.876877,72.956009 123.316269,74.036484 123.256599,75.194305 
	C122.975487,80.648727 121.859787,86.504601 123.384857,91.502258 
	C125.607613,98.786179 122.209938,105.276680 122.513275,112.155029 
	C122.569176,113.422729 121.540482,115.237877 120.453094,115.972763 
	C114.732826,119.838722 113.814392,125.266144 114.270271,131.622681 
	C114.537651,135.350937 116.100243,136.724594 119.517830,136.603516 
	C125.292625,136.398911 128.638824,132.802200 129.062134,126.561119 
	C129.385788,121.789261 129.792343,117.021294 130.266190,112.261971 
	C130.570984,109.200607 131.263672,106.168449 131.423843,103.104454 
	C131.631332,99.135277 131.441238,95.146873 131.497238,91.167801 
	C131.553360,87.180168 132.019012,83.169144 131.711197,79.214607 
	C131.455521,75.929932 130.680435,72.465340 125.745956,71.839905 
M184.191635,151.266541 
	C185.149231,141.444870 182.042648,133.128662 175.884521,125.404350 
	C172.797058,121.531654 171.333862,116.371986 169.069427,111.827576 
	C168.679718,111.045486 167.955429,110.430107 167.385712,109.737717 
	C166.631042,110.475159 165.254135,111.203224 165.242874,111.951859 
	C165.213593,113.895729 165.323868,116.094749 166.207367,117.749321 
	C168.392319,121.841217 170.671707,125.986671 173.586945,129.561081 
	C178.375229,135.432068 180.610321,141.836166 180.139938,149.392319 
	C179.396149,161.339890 183.819244,171.662018 191.298050,180.593445 
	C196.652267,186.987579 200.065323,193.822937 200.071014,202.276764 
	C200.071808,203.461975 201.238495,204.646408 201.865509,205.831192 
	C202.582306,204.586044 203.859024,203.370178 203.925903,202.091049 
	C204.393661,193.144775 201.034988,185.592438 195.290680,178.841553 
	C188.774979,171.184158 184.439102,162.513443 184.191635,151.266541 
M147.283615,207.062820 
	C146.909943,205.284485 146.926468,203.273972 146.047241,201.796478 
	C145.249557,200.455963 143.476349,199.695969 142.133224,198.680038 
	C141.580978,200.087082 140.861816,201.454407 140.515457,202.910431 
	C139.991455,205.113174 139.491486,207.369537 139.413818,209.618057 
	C139.322784,212.253662 138.912048,215.300140 140.009979,217.477615 
	C143.641251,224.679398 150.719727,230.304871 149.657059,239.600693 
	C149.574738,240.320831 150.030701,241.409012 150.602600,241.837814 
	C152.093552,242.955643 153.915710,244.698196 155.363724,244.491989 
	C156.681091,244.304382 158.771912,241.756607 158.623886,240.467041 
	C158.084717,235.769684 157.212357,230.996216 155.605850,226.562973 
	C153.293060,220.180725 150.228531,214.070862 147.283615,207.062820 
M237.496155,215.420792 
	C237.335800,217.477936 237.295120,219.553528 236.981888,221.587128 
	C236.659225,223.681915 235.592545,225.756897 235.682785,227.803894 
	C236.051620,236.170715 236.952667,244.516068 237.244827,252.883728 
	C237.511398,260.518066 235.916962,262.344666 228.454666,265.092102 
	C227.676270,265.378693 227.130936,266.298279 226.477478,266.924133 
	C227.246399,267.609741 228.019363,268.870361 228.783401,268.864929 
	C230.541595,268.852539 232.498413,268.598938 234.014008,267.777710 
	C239.117447,265.012421 241.852463,260.467102 241.659241,254.720764 
	C241.355850,245.697845 240.553940,236.692245 240.028503,227.675507 
	C239.963196,226.554733 239.958130,225.206604 240.499222,224.310455 
	C244.189392,218.198761 241.715668,213.215027 237.873672,208.391098 
	C234.525513,204.187241 231.249313,199.925568 227.859467,195.755997 
	C227.434448,195.233231 226.267792,194.683197 225.869431,194.905823 
	C225.135986,195.315659 224.102112,196.513809 224.275238,196.990997 
	C225.034500,199.083908 225.897949,201.255295 227.244141,202.995590 
	C230.373108,207.040527 233.802612,210.852966 237.496155,215.420792 
M142.445740,270.832153 
	C146.709595,263.053406 146.316681,255.812592 141.151840,251.167526 
	C140.242004,250.349289 138.619232,250.323746 137.325714,249.932114 
	C137.533081,251.228394 137.285492,252.943939 138.026718,253.748199 
	C141.198044,257.189392 142.041428,261.090149 140.504425,265.305328 
	C139.670212,267.593170 138.199463,269.765625 136.601349,271.635956 
	C132.084274,276.922516 131.103394,282.339691 134.616196,288.629852 
	C135.535889,290.276703 135.816086,293.017578 135.097778,294.706421 
	C132.790619,300.130859 128.824402,303.966370 122.744850,305.284821 
	C121.467560,305.561768 120.399017,306.801239 119.234291,307.597229 
	C120.638931,308.155182 122.074608,309.261719 123.443306,309.184326 
	C134.437912,308.562378 142.527969,295.440155 137.907944,285.601746 
	C136.205460,281.976318 136.342087,278.944336 138.767944,275.871674 
	C139.902283,274.434875 140.940521,272.922211 142.445740,270.832153 
M152.146423,115.381401 
	C152.215775,117.735703 151.653442,120.347038 152.485168,122.391151 
	C154.251511,126.732254 154.933838,130.860016 153.777771,135.502731 
	C153.260513,137.579956 153.631973,140.207047 154.464691,142.228455 
	C156.700165,147.655060 159.401917,152.889587 162.271271,158.944870 
	C163.323441,158.125458 165.276443,157.175888 166.389938,155.623962 
	C169.101791,151.844299 168.626297,144.872269 164.853363,140.697906 
	C161.260864,136.723175 159.810959,132.294342 159.255966,127.194191 
	C158.953262,124.412598 158.371933,121.513580 157.168167,119.030128 
	C156.375565,117.394997 154.249725,116.406105 152.146423,115.381401 
M81.249222,141.642349 
	C80.875694,142.743668 80.662910,143.935211 80.103355,144.932114 
	C75.370689,153.363770 78.104912,163.917053 72.308220,172.171738 
	C71.471962,173.362595 73.242096,176.383743 73.806084,178.557907 
	C76.145477,177.344910 79.605400,176.735504 80.637962,174.818573 
	C86.301155,164.304993 87.480919,153.151230 83.437431,141.711060 
	C83.310608,141.352219 82.205322,141.339233 81.249222,141.642349 
M75.147964,130.552063 
	C77.884636,124.800766 80.635712,119.056259 83.348900,113.293900 
	C84.127014,111.641319 84.977867,109.985260 85.439148,108.236809 
	C85.677551,107.333206 85.135269,106.223640 84.945702,105.207130 
	C83.955597,105.555748 82.427414,105.616310 82.061806,106.299248 
	C79.492462,111.098740 76.556450,115.837524 74.955093,120.975182 
	C73.752419,124.833733 72.261627,127.922318 69.085823,130.379822 
	C65.117676,133.450455 62.680408,137.603775 64.364151,142.577072 
	C66.091034,147.677795 65.323677,151.664230 62.206711,155.982269 
	C60.803795,157.925766 61.014656,161.182739 60.978458,163.850327 
	C60.970329,164.449280 62.940426,165.295731 64.106857,165.565659 
	C64.494766,165.655411 65.849365,163.921783 65.692764,163.659012 
	C63.155869,159.402405 67.033707,157.057236 68.282257,153.880142 
	C69.200905,151.542526 70.171425,148.418915 69.348083,146.350372 
	C66.591965,139.425980 69.096619,134.851486 75.147964,130.552063 
M214.039536,208.557556 
	C217.017181,211.249725 217.349609,214.436035 216.008224,218.072296 
	C214.979172,220.861862 214.278183,223.742691 218.366974,224.765564 
	C222.009628,225.676819 225.701309,223.224457 225.686768,219.395752 
	C225.677170,216.871033 224.918976,214.118927 223.730560,211.873795 
	C220.658401,206.069992 217.261337,200.428253 213.762772,194.867279 
	C212.920807,193.528992 211.180496,192.755890 209.853302,191.722885 
	C209.076859,193.423462 207.251724,195.521240 207.717606,196.751282 
	C209.205078,200.678558 211.543106,204.283676 214.039536,208.557556 
M113.742287,267.941437 
	C111.506882,262.700500 109.271477,257.459595 106.453331,250.852417 
	C105.998291,254.676346 105.193817,257.741180 105.374176,260.746918 
	C105.680412,265.850189 106.265762,270.993439 107.391380,275.971191 
	C108.165436,279.394287 109.542992,282.935486 111.585571,285.744019 
	C113.543350,288.435944 116.761078,287.326569 116.583084,284.060699 
	C116.300171,278.869720 115.033012,273.732422 113.742287,267.941437 
M103.773552,290.712524 
	C99.467682,286.861298 96.510193,282.618317 99.061226,276.434296 
	C99.452766,275.485168 99.340721,273.874725 98.767090,273.057709 
	C95.942955,269.035187 96.552063,265.363281 99.182541,261.553925 
	C99.672951,260.843750 99.239525,259.495605 99.232445,258.441895 
	C98.108940,258.750824 96.643181,258.713196 95.920013,259.427460 
	C92.423538,262.880829 91.817253,268.098389 93.782898,272.759125 
	C94.442802,274.323761 94.846817,276.247070 94.607597,277.896179 
	C93.641045,284.559418 101.184845,297.713135 107.496979,299.656464 
	C108.510498,299.968506 109.824326,299.305176 110.999329,299.092712 
	C110.409805,298.060669 109.983719,296.876892 109.196175,296.028687 
	C107.636826,294.349182 105.877785,292.855072 103.773552,290.712524 
M212.829788,283.297668 
	C209.935715,284.836517 206.977859,286.271149 204.187180,287.978973 
	C203.370224,288.478943 203.028687,289.755737 202.469238,290.676483 
	C203.264450,291.107422 204.379028,292.115631 204.805298,291.879791 
	C208.915039,289.605957 214.097229,287.999664 216.674759,284.506744 
	C221.245605,278.312500 226.117203,271.637726 224.354813,262.825256 
	C224.034027,261.221191 225.349594,259.348511 225.552780,257.559265 
	C225.677277,256.463165 225.121841,255.289871 224.871735,254.151245 
	C223.847778,254.768951 222.120850,255.215683 221.921829,256.034027 
	C221.070862,259.532959 220.683929,263.143707 220.101334,266.709320 
	C219.736450,268.942474 219.764038,271.374786 218.834427,273.350159 
	C217.298462,276.613983 215.131210,279.580688 212.829788,283.297668 
M26.757088,221.328461 
	C26.483288,222.113754 25.827709,223.001328 26.005657,223.665619 
	C26.592203,225.855286 27.061535,229.436417 28.339256,229.799911 
	C31.062378,230.574631 34.395649,230.066086 37.180294,229.162827 
	C37.884403,228.934448 37.733162,225.210312 37.491932,223.149078 
	C37.206306,220.708542 36.450283,218.314819 35.797413,215.928375 
	C35.360889,214.332733 34.748791,212.785126 34.215260,211.216019 
	C33.723259,211.146301 33.231262,211.076569 32.739262,211.006836 
	C30.835745,214.214340 28.932228,217.421829 26.757088,221.328461 
M131.546021,180.935913 
	C126.872566,177.928741 125.612892,173.167694 127.613251,167.026947 
	C128.259491,165.043091 129.332932,162.330139 128.523254,160.919159 
	C126.781227,157.883331 127.320251,156.141052 129.807373,154.189423 
	C130.345306,153.767303 130.594879,152.193985 130.232132,151.631454 
	C129.879745,151.085007 127.988014,150.729218 127.772644,151.023026 
	C126.009827,153.427795 122.629547,156.676910 123.253159,158.393326 
	C124.709442,162.401611 123.063843,165.651550 122.945854,169.234329 
	C122.828918,172.785507 123.042282,176.775070 124.593239,179.816360 
	C125.801445,182.185577 129.189056,183.570999 131.823578,184.995026 
	C132.478470,185.349014 133.967010,184.160690 135.072372,183.681290 
	C134.140198,182.805237 133.208023,181.929184 131.546021,180.935913 
M157.002563,68.819252 
	C154.439240,75.431290 160.970139,71.696838 162.443512,73.415581 
	C161.777542,75.144211 161.159485,76.677307 160.686340,78.253899 
	C160.668610,78.312950 162.363495,79.250999 162.740387,78.999687 
	C164.292908,77.964539 166.097397,76.885574 166.972321,75.346848 
	C168.611786,72.463593 167.919983,70.071251 164.540710,68.538223 
	C163.376312,68.010002 162.293503,66.411797 161.957352,65.101288 
	C160.455338,59.245644 157.715515,58.218769 153.431488,62.494137 
	C152.094742,63.828194 151.753662,66.159920 150.956787,68.034943 
	C152.588898,67.353241 154.216370,66.660049 155.856415,65.998001 
	C156.261658,65.834412 156.707733,65.771980 157.573578,65.551262 
	C157.400635,66.631973 157.278442,67.395615 157.002563,68.819252 
M42.193825,184.670959 
	C42.464592,184.197342 42.620995,183.507523 43.028324,183.292068 
	C44.100628,182.724869 45.281998,182.363831 46.419933,181.920685 
	C45.596180,180.801910 44.937412,178.966476 43.910522,178.730072 
	C42.316055,178.363007 39.126915,178.725342 38.945908,179.402161 
	C37.569000,184.550797 36.585197,189.835098 36.098446,195.134064 
	C36.058861,195.564972 40.604614,196.545486 43.071350,196.971725 
	C43.575047,197.058762 44.310780,195.802948 44.939545,195.166138 
	C43.374577,194.316010 41.798771,193.484512 40.260147,192.589111 
	C40.092594,192.491577 40.139580,192.025391 40.100060,191.727890 
	C47.030819,188.941986 47.101894,188.761871 42.193825,184.670959 
M205.847198,158.732315 
	C201.378342,162.103546 205.812393,163.251740 207.092422,164.250076 
	C206.149033,166.430603 205.460358,168.022369 204.771698,169.614136 
	C206.798447,169.050766 208.874115,168.612076 210.821960,167.847641 
	C211.402267,167.619904 211.882019,166.507416 211.966293,165.751099 
	C212.370895,162.119629 212.900269,158.462097 212.779236,154.834045 
	C212.737747,153.590454 210.825836,151.305542 209.953964,151.390915 
	C206.757721,151.703918 203.617676,152.744095 200.519760,153.712830 
	C200.134247,153.833374 199.730881,155.488998 200.035919,155.864380 
	C200.533493,156.476639 201.672760,157.009491 202.426056,156.884033 
	C204.252853,156.579773 206.013290,155.877075 207.800476,155.334930 
	C207.933441,155.600861 208.066422,155.866806 208.199387,156.132736 
	C207.573715,156.847382 206.948044,157.562042 205.847198,158.732315 
M183.486618,300.933655 
	C180.581314,298.420319 180.170959,298.485565 179.215729,302.639130 
	C178.274399,306.732178 176.513184,308.904205 171.874969,307.565735 
	C170.471832,307.160828 168.733276,308.022339 167.136017,308.153748 
	C165.807907,308.262970 164.461685,308.153198 163.123520,308.138947 
	C161.843781,308.125305 160.564072,308.109650 159.284332,308.094879 
	C159.866898,309.333008 160.183594,311.348755 161.084198,311.656647 
	C163.359222,312.434418 165.890121,312.572205 168.332520,312.701508 
	C169.392334,312.757568 170.487411,311.901001 171.565140,311.904144 
	C180.378326,311.930206 182.007004,310.578979 183.486618,300.933655 
M25.079117,242.467484 
	C21.156252,247.871674 27.829901,251.754898 27.356007,256.754517 
	C27.330793,257.020538 31.056807,257.867279 33.059460,257.962769 
	C33.658440,257.991333 34.335434,256.383911 34.976681,255.525986 
	C33.599937,254.734573 32.223198,253.943161 30.614941,253.018677 
	C33.153313,249.844543 35.054703,246.517136 26.720070,245.307083 
	C29.995058,244.086426 31.552361,243.689896 32.908150,242.932602 
	C33.739170,242.468430 34.261303,241.451279 34.922153,240.682449 
	C34.026127,240.135376 32.952129,238.961060 32.266506,239.155579 
	C29.951029,239.812515 27.773388,240.955261 25.079117,242.467484 
M92.799873,76.250526 
	C92.540787,78.779427 92.160271,81.303177 92.052574,83.838509 
	C91.909782,87.199623 94.102654,88.699646 97.041481,88.738281 
	C98.612099,88.758942 100.196907,87.699341 101.775314,87.127266 
	C100.486237,86.247536 99.190041,85.377914 97.914207,84.479385 
	C97.664719,84.303688 97.494164,84.015915 97.445343,83.960228 
	C98.234695,81.557335 98.822220,79.261314 99.757668,77.117081 
	C100.293892,75.887939 101.395172,74.905312 102.242065,73.811707 
	C100.703148,73.644379 99.081535,73.098831 97.647758,73.412338 
	C96.105042,73.749672 94.738487,74.892647 92.799873,76.250526 
M61.035919,290.305359 
	C59.889042,290.626495 57.881130,290.735016 57.740452,291.304657 
	C57.032917,294.169617 56.071625,297.310760 56.647385,300.050629 
	C57.141808,302.403412 67.410065,306.105377 68.751236,304.931335 
	C69.513817,304.263763 70.053917,301.887634 69.718315,301.648071 
	C66.804047,299.567810 63.668373,297.797699 60.404186,295.817444 
	C60.710922,294.509644 61.141525,292.673737 61.035919,290.305359 
M72.610634,197.997849 
	C67.372368,199.903427 65.407234,202.895996 66.992294,206.553589 
	C68.346451,209.678360 72.197983,210.796600 75.414116,208.708542 
	C76.479843,208.016617 77.000557,206.485245 77.770454,205.337677 
	C76.524864,205.096756 75.287880,204.764954 74.030754,204.645981 
	C73.152641,204.562881 72.246964,204.771149 71.353600,204.849274 
	C72.003044,203.147308 73.189751,202.627350 74.216545,201.885925 
	C75.057289,201.278854 75.707535,200.407959 76.442223,199.654007 
	C75.421532,199.080475 74.400848,198.506943 72.610634,197.997849 
M130.936920,42.758564 
	C130.149704,41.543873 129.362488,40.329182 128.575272,39.114491 
	C128.012024,40.453907 127.056023,41.769104 126.971619,43.138042 
	C126.820625,45.586926 126.992050,48.106705 127.449821,50.516861 
	C127.631462,51.473183 128.935440,52.216331 129.728424,53.056538 
	C130.317673,52.041737 131.336960,51.055122 131.405701,50.006210 
	C131.544327,47.890839 131.166016,45.741596 130.936920,42.758564 
z"/>
<path fill="#0B0203" opacity="1.000000" stroke="none" 
	d="
M71.132774,247.661530 
	C71.606873,255.499771 72.666512,262.945862 72.259743,270.311005 
	C71.822716,278.223907 73.556267,285.103638 78.089378,291.442535 
	C82.249107,297.259277 86.190445,303.244751 90.597626,308.866058 
	C92.460754,311.242462 95.304817,312.837402 97.630058,314.870972 
	C98.395859,315.540680 98.932343,316.472626 99.573677,317.284668 
	C98.459946,317.770844 96.907990,318.982941 96.306816,318.620056 
	C93.387177,316.857544 90.115456,315.146912 88.084564,312.546295 
	C82.668076,305.610382 77.815994,298.233002 72.763466,291.014404 
	C72.194031,290.200836 71.473297,289.325043 71.337601,288.402374 
	C70.135521,280.229034 63.640186,275.349670 59.423065,269.065643 
	C49.557709,254.365112 43.607216,238.730835 47.412739,220.634781 
	C48.027557,217.711182 48.169250,214.686600 48.813881,211.771545 
	C49.042442,210.737991 50.117275,209.891556 50.805767,208.959702 
	C51.482452,210.064224 52.808731,211.221115 52.724617,212.264267 
	C52.337578,217.064346 51.589195,221.837280 50.911587,226.611572 
	C48.808193,241.431778 54.742329,253.919037 62.343513,265.898376 
	C63.738518,268.096863 65.473892,270.079407 68.251053,272.058228 
	C68.251053,266.097229 68.458450,260.126953 68.192604,254.177826 
	C67.927773,248.251312 67.047325,242.353012 66.753929,236.426620 
	C66.678947,234.912033 67.540573,233.147934 68.472641,231.861221 
	C69.051071,231.062683 70.571823,230.946716 71.669609,230.524384 
	C71.815544,231.553589 72.138443,232.593491 72.076965,233.610153 
	C71.802116,238.154968 71.417641,242.693146 71.132774,247.661530 
z"/>
<path fill="#0B0203" opacity="1.000000" stroke="none" 
	d="
M174.379333,270.400879 
	C176.133896,268.835052 177.702103,267.580872 179.079041,266.143494 
	C185.448196,259.494781 186.210114,253.147690 181.239120,245.405518 
	C176.215164,237.580841 171.330582,229.603958 165.579865,222.330231 
	C161.609940,217.308914 160.006195,212.087112 160.911148,206.135254 
	C162.269913,197.198822 159.495499,190.443756 151.602173,185.934631 
	C145.533493,182.467880 143.888428,177.025650 144.284378,170.459320 
	C144.684784,163.819031 144.681686,157.152115 145.187851,150.522247 
	C145.296219,149.102875 146.833572,147.792603 147.712631,146.432068 
	C148.200699,147.827484 149.108688,149.223404 149.107010,150.618225 
	C149.097778,158.274124 148.615021,165.937881 148.862534,173.580551 
	C148.937073,175.882462 150.627548,178.253555 151.960526,180.349533 
	C152.818848,181.699127 154.259079,182.782883 155.637482,183.680038 
	C162.905228,188.410385 166.508896,194.953598 164.980759,203.616058 
	C162.838928,215.757324 171.772614,223.126877 176.891724,232.103561 
	C179.100998,235.977722 182.434540,239.199585 184.763062,243.019104 
	C191.023712,253.288574 189.878220,261.521240 181.266830,269.961456 
	C174.544724,276.549988 167.048325,281.910370 157.662262,284.029236 
	C156.830170,284.217072 155.870850,283.841400 154.970627,283.727478 
	C155.165756,282.709900 155.034271,281.383972 155.634155,280.748505 
	C156.490082,279.841827 157.887329,279.450928 159.044052,278.822601 
	C164.066193,276.094513 169.084930,273.360199 174.379333,270.400879 
z"/>
<path fill="#0B0203" opacity="1.000000" stroke="none" 
	d="
M116.839050,90.111221 
	C116.768990,93.088036 116.528748,95.599770 116.726906,98.076424 
	C117.340164,105.741257 114.873970,111.797653 109.015831,117.077972 
	C101.460197,123.888329 98.736778,140.301849 103.398865,149.502487 
	C109.240562,161.031082 109.028214,171.844284 100.874565,182.116547 
	C92.879051,192.189560 93.411171,203.778870 94.990875,215.467865 
	C95.213455,217.114883 97.162300,218.596268 98.467979,220.010406 
	C99.803574,221.457016 101.584869,222.553802 102.668007,224.145950 
	C103.215569,224.950836 102.652161,226.511505 102.591064,227.730469 
	C101.499298,227.308121 100.273796,227.075562 99.345375,226.421387 
	C97.731537,225.284241 96.111153,224.048401 94.842163,222.557236 
	C93.270302,220.710175 91.086662,218.670624 90.843109,216.524094 
	C89.449074,204.237946 88.200813,191.754578 96.606323,181.109024 
	C104.418114,171.215439 104.945671,161.233871 99.153328,150.051590 
	C94.123940,140.342178 97.786621,121.917122 105.849129,114.425049 
	C110.643417,109.969963 112.830292,105.114647 112.407753,98.595985 
	C112.086739,93.643440 112.555038,88.626404 112.907623,83.654755 
	C112.978378,82.657005 114.111076,81.734558 114.754135,80.777390 
	C115.458946,81.731148 116.598534,82.611519 116.774597,83.654541 
	C117.102386,85.596397 116.869141,87.632957 116.839050,90.111221 
z"/>
<path fill="#AA5464" opacity="1.000000" stroke="none" 
	d="
M126.090988,71.792068 
	C130.680435,72.465340 131.455521,75.929932 131.711197,79.214607 
	C132.019012,83.169144 131.553360,87.180168 131.497238,91.167801 
	C131.441238,95.146873 131.631332,99.135277 131.423843,103.104454 
	C131.263672,106.168449 130.570984,109.200607 130.266190,112.261971 
	C129.792343,117.021294 129.385788,121.789261 129.062134,126.561119 
	C128.638824,132.802200 125.292625,136.398911 119.517830,136.603516 
	C116.100243,136.724594 114.537651,135.350937 114.270271,131.622681 
	C113.814392,125.266144 114.732826,119.838722 120.453094,115.972763 
	C121.540482,115.237877 122.569176,113.422729 122.513275,112.155029 
	C122.209938,105.276680 125.607613,98.786179 123.384857,91.502258 
	C121.859787,86.504601 122.975487,80.648727 123.256599,75.194305 
	C123.316269,74.036484 124.876877,72.956009 126.090988,71.792068 
z"/>
<path fill="#090103" opacity="1.000000" stroke="none" 
	d="
M184.192352,151.730133 
	C184.439102,162.513443 188.774979,171.184158 195.290680,178.841553 
	C201.034988,185.592438 204.393661,193.144775 203.925903,202.091049 
	C203.859024,203.370178 202.582306,204.586044 201.865509,205.831192 
	C201.238495,204.646408 200.071808,203.461975 200.071014,202.276764 
	C200.065323,193.822937 196.652267,186.987579 191.298050,180.593445 
	C183.819244,171.662018 179.396149,161.339890 180.139938,149.392319 
	C180.610321,141.836166 178.375229,135.432068 173.586945,129.561081 
	C170.671707,125.986671 168.392319,121.841217 166.207367,117.749321 
	C165.323868,116.094749 165.213593,113.895729 165.242874,111.951859 
	C165.254135,111.203224 166.631042,110.475159 167.385712,109.737717 
	C167.955429,110.430107 168.679718,111.045486 169.069427,111.827576 
	C171.333862,116.371986 172.797058,121.531654 175.884521,125.404350 
	C182.042648,133.128662 185.149231,141.444870 184.192352,151.730133 
z"/>
<path fill="#AA5464" opacity="1.000000" stroke="none" 
	d="
M147.384216,207.453796 
	C150.228531,214.070862 153.293060,220.180725 155.605850,226.562973 
	C157.212357,230.996216 158.084717,235.769684 158.623886,240.467041 
	C158.771912,241.756607 156.681091,244.304382 155.363724,244.491989 
	C153.915710,244.698196 152.093552,242.955643 150.602600,241.837814 
	C150.030701,241.409012 149.574738,240.320831 149.657059,239.600693 
	C150.719727,230.304871 143.641251,224.679398 140.009979,217.477615 
	C138.912048,215.300140 139.322784,212.253662 139.413818,209.618057 
	C139.491486,207.369537 139.991455,205.113174 140.515457,202.910431 
	C140.861816,201.454407 141.580978,200.087082 142.133224,198.680038 
	C143.476349,199.695969 145.249557,200.455963 146.047241,201.796478 
	C146.926468,203.273972 146.909943,205.284485 147.384216,207.453796 
z"/>
<path fill="#0B0203" opacity="1.000000" stroke="none" 
	d="
M237.303223,215.090210 
	C233.802612,210.852966 230.373108,207.040527 227.244141,202.995590 
	C225.897949,201.255295 225.034500,199.083908 224.275238,196.990997 
	C224.102112,196.513809 225.135986,195.315659 225.869431,194.905823 
	C226.267792,194.683197 227.434448,195.233231 227.859467,195.755997 
	C231.249313,199.925568 234.525513,204.187241 237.873672,208.391098 
	C241.715668,213.215027 244.189392,218.198761 240.499222,224.310455 
	C239.958130,225.206604 239.963196,226.554733 240.028503,227.675507 
	C240.553940,236.692245 241.355850,245.697845 241.659241,254.720764 
	C241.852463,260.467102 239.117447,265.012421 234.014008,267.777710 
	C232.498413,268.598938 230.541595,268.852539 228.783401,268.864929 
	C228.019363,268.870361 227.246399,267.609741 226.477478,266.924133 
	C227.130936,266.298279 227.676270,265.378693 228.454666,265.092102 
	C235.916962,262.344666 237.511398,260.518066 237.244827,252.883728 
	C236.952667,244.516068 236.051620,236.170715 235.682785,227.803894 
	C235.592545,225.756897 236.659225,223.681915 236.981888,221.587128 
	C237.295120,219.553528 237.335800,217.477936 237.303223,215.090210 
z"/>
<path fill="#0A0203" opacity="1.000000" stroke="none" 
	d="
M142.234039,271.138062 
	C140.940521,272.922211 139.902283,274.434875 138.767944,275.871674 
	C136.342087,278.944336 136.205460,281.976318 137.907944,285.601746 
	C142.527969,295.440155 134.437912,308.562378 123.443306,309.184326 
	C122.074608,309.261719 120.638931,308.155182 119.234283,307.597229 
	C120.399017,306.801239 121.467560,305.561768 122.744850,305.284821 
	C128.824402,303.966370 132.790619,300.130859 135.097778,294.706421 
	C135.816086,293.017578 135.535889,290.276703 134.616196,288.629852 
	C131.103394,282.339691 132.084274,276.922516 136.601349,271.635956 
	C138.199463,269.765625 139.670212,267.593170 140.504425,265.305328 
	C142.041428,261.090149 141.198044,257.189392 138.026718,253.748199 
	C137.285492,252.943939 137.533081,251.228394 137.325714,249.932114 
	C138.619232,250.323746 140.242004,250.349289 141.151840,251.167526 
	C146.316681,255.812592 146.709595,263.053406 142.234039,271.138062 
z"/>
<path fill="#AA5364" opacity="1.000000" stroke="none" 
	d="
M152.433655,115.254616 
	C154.249725,116.406105 156.375565,117.394997 157.168167,119.030128 
	C158.371933,121.513580 158.953262,124.412598 159.255966,127.194191 
	C159.810959,132.294342 161.260864,136.723175 164.853363,140.697906 
	C168.626297,144.872269 169.101791,151.844299 166.389938,155.623962 
	C165.276443,157.175888 163.323441,158.125458 162.271271,158.944870 
	C159.401917,152.889587 156.700165,147.655060 154.464691,142.228455 
	C153.631973,140.207047 153.260513,137.579956 153.777771,135.502731 
	C154.933838,130.860016 154.251511,126.732254 152.485168,122.391151 
	C151.653442,120.347038 152.215775,117.735703 152.433655,115.254616 
z"/>
<path fill="#AA5364" opacity="1.000000" stroke="none" 
	d="
M81.402702,141.403687 
	C82.205322,141.339233 83.310608,141.352219 83.437431,141.711060 
	C87.480919,153.151230 86.301155,164.304993 80.637962,174.818573 
	C79.605400,176.735504 76.145477,177.344910 73.806076,178.557892 
	C73.242096,176.383743 71.471962,173.362595 72.308220,172.171738 
	C78.104912,163.917053 75.370689,153.363770 80.103355,144.932114 
	C80.662910,143.935211 80.875694,142.743668 81.402702,141.403687 
z"/>
<path fill="#090203" opacity="1.000000" stroke="none" 
	d="
M74.893372,130.812744 
	C69.096619,134.851486 66.591965,139.425980 69.348083,146.350372 
	C70.171425,148.418915 69.200905,151.542526 68.282257,153.880142 
	C67.033707,157.057236 63.155869,159.402405 65.692764,163.659012 
	C65.849365,163.921783 64.494766,165.655411 64.106857,165.565659 
	C62.940426,165.295731 60.970329,164.449280 60.978458,163.850327 
	C61.014656,161.182739 60.803795,157.925766 62.206711,155.982269 
	C65.323677,151.664230 66.091034,147.677795 64.364151,142.577072 
	C62.680408,137.603775 65.117676,133.450455 69.085823,130.379822 
	C72.261627,127.922318 73.752419,124.833733 74.955093,120.975182 
	C76.556450,115.837524 79.492462,111.098740 82.061806,106.299248 
	C82.427414,105.616310 83.955597,105.555748 84.945709,105.207130 
	C85.135269,106.223640 85.677551,107.333206 85.439148,108.236809 
	C84.977867,109.985260 84.127014,111.641319 83.348900,113.293900 
	C80.635712,119.056259 77.884636,124.800766 74.893372,130.812744 
z"/>
<path fill="#AA5363" opacity="1.000000" stroke="none" 
	d="
M213.796112,208.285385 
	C211.543106,204.283676 209.205078,200.678558 207.717606,196.751282 
	C207.251724,195.521240 209.076859,193.423462 209.853302,191.722885 
	C211.180496,192.755890 212.920807,193.528992 213.762772,194.867279 
	C217.261337,200.428253 220.658401,206.069992 223.730560,211.873795 
	C224.918976,214.118927 225.677170,216.871033 225.686768,219.395752 
	C225.701309,223.224457 222.009628,225.676819 218.366974,224.765564 
	C214.278183,223.742691 214.979172,220.861862 216.008224,218.072296 
	C217.349609,214.436035 217.017181,211.249725 213.796112,208.285385 
z"/>
<path fill="#AA5262" opacity="1.000000" stroke="none" 
	d="
M113.962234,268.256927 
	C115.033012,273.732422 116.300171,278.869720 116.583084,284.060699 
	C116.761078,287.326569 113.543350,288.435944 111.585571,285.744019 
	C109.542992,282.935486 108.165436,279.394287 107.391380,275.971191 
	C106.265762,270.993439 105.680412,265.850189 105.374176,260.746918 
	C105.193817,257.741180 105.998291,254.676346 106.453331,250.852417 
	C109.271477,257.459595 111.506882,262.700500 113.962234,268.256927 
z"/>
<path fill="#080202" opacity="1.000000" stroke="none" 
	d="
M103.987427,290.998413 
	C105.877785,292.855072 107.636826,294.349182 109.196175,296.028687 
	C109.983719,296.876892 110.409805,298.060669 110.999329,299.092712 
	C109.824326,299.305176 108.510498,299.968506 107.496979,299.656464 
	C101.184845,297.713135 93.641045,284.559418 94.607597,277.896179 
	C94.846817,276.247070 94.442802,274.323761 93.782898,272.759125 
	C91.817253,268.098389 92.423538,262.880829 95.920013,259.427460 
	C96.643181,258.713196 98.108940,258.750824 99.232445,258.441895 
	C99.239525,259.495605 99.672951,260.843750 99.182541,261.553925 
	C96.552063,265.363281 95.942955,269.035187 98.767090,273.057709 
	C99.340721,273.874725 99.452766,275.485168 99.061226,276.434296 
	C96.510193,282.618317 99.467682,286.861298 103.987427,290.998413 
z"/>
<path fill="#080103" opacity="1.000000" stroke="none" 
	d="
M213.029892,282.985138 
	C215.131210,279.580688 217.298462,276.613983 218.834427,273.350159 
	C219.764038,271.374786 219.736450,268.942474 220.101334,266.709320 
	C220.683929,263.143707 221.070862,259.532959 221.921829,256.034027 
	C222.120850,255.215683 223.847778,254.768951 224.871735,254.151245 
	C225.121841,255.289871 225.677277,256.463165 225.552780,257.559265 
	C225.349594,259.348511 224.034027,261.221191 224.354813,262.825256 
	C226.117203,271.637726 221.245605,278.312500 216.674759,284.506744 
	C214.097229,287.999664 208.915039,289.605957 204.805298,291.879791 
	C204.379028,292.115631 203.264450,291.107422 202.469238,290.676483 
	C203.028687,289.755737 203.370224,288.478943 204.187180,287.978973 
	C206.977859,286.271149 209.935715,284.836517 213.029892,282.985138 
z"/>
<path fill="#AA5363" opacity="1.000000" stroke="none" 
	d="
M26.892900,220.978882 
	C28.932228,217.421829 30.835745,214.214340 32.739262,211.006836 
	C33.231262,211.076569 33.723259,211.146301 34.215260,211.216019 
	C34.748791,212.785126 35.360889,214.332733 35.797413,215.928375 
	C36.450283,218.314819 37.206306,220.708542 37.491932,223.149078 
	C37.733162,225.210312 37.884403,228.934448 37.180294,229.162827 
	C34.395649,230.066086 31.062378,230.574631 28.339256,229.799911 
	C27.061535,229.436417 26.592203,225.855286 26.005657,223.665619 
	C25.827709,223.001328 26.483288,222.113754 26.892900,220.978882 
z"/>
<path fill="#080103" opacity="1.000000" stroke="none" 
	d="
M131.910919,180.994522 
	C133.208023,181.929184 134.140198,182.805237 135.072372,183.681274 
	C133.967010,184.160690 132.478470,185.349014 131.823578,184.995026 
	C129.189056,183.570999 125.801445,182.185577 124.593239,179.816360 
	C123.042282,176.775070 122.828918,172.785507 122.945854,169.234329 
	C123.063843,165.651550 124.709442,162.401611 123.253159,158.393326 
	C122.629547,156.676910 126.009827,153.427795 127.772644,151.023026 
	C127.988014,150.729218 129.879745,151.085007 130.232132,151.631454 
	C130.594879,152.193985 130.345306,153.767303 129.807373,154.189423 
	C127.320251,156.141052 126.781227,157.883331 128.523254,160.919159 
	C129.332932,162.330139 128.259491,165.043091 127.613251,167.026947 
	C125.612892,173.167694 126.872566,177.928741 131.910919,180.994522 
z"/>
<path fill="#0D0204" opacity="1.000000" stroke="none" 
	d="
M157.079407,68.489250 
	C157.278442,67.395615 157.400635,66.631973 157.573578,65.551262 
	C156.707733,65.771980 156.261658,65.834412 155.856415,65.998001 
	C154.216370,66.660049 152.588898,67.353241 150.956787,68.034943 
	C151.753662,66.159920 152.094742,63.828194 153.431488,62.494137 
	C157.715515,58.218769 160.455338,59.245644 161.957352,65.101288 
	C162.293503,66.411797 163.376312,68.010002 164.540710,68.538223 
	C167.919983,70.071251 168.611786,72.463593 166.972321,75.346848 
	C166.097397,76.885574 164.292908,77.964539 162.740387,78.999687 
	C162.363495,79.250999 160.668610,78.312950 160.686340,78.253899 
	C161.159485,76.677307 161.777542,75.144211 162.443512,73.415581 
	C160.970139,71.696838 154.439240,75.431290 157.079407,68.489250 
z"/>
<path fill="#0B0204" opacity="1.000000" stroke="none" 
	d="
M42.463966,184.862213 
	C47.101894,188.761871 47.030819,188.941986 40.093555,191.729050 
	C40.139580,192.025391 40.092594,192.491577 40.260147,192.589111 
	C41.798771,193.484512 43.374577,194.316010 44.939548,195.166138 
	C44.310780,195.802948 43.575047,197.058762 43.071350,196.971725 
	C40.604614,196.545486 36.058861,195.564972 36.098446,195.134064 
	C36.585197,189.835098 37.569000,184.550797 38.945908,179.402161 
	C39.126915,178.725342 42.316055,178.363007 43.910522,178.730072 
	C44.937412,178.966476 45.596180,180.801910 46.419933,181.920685 
	C45.281998,182.363831 44.100628,182.724869 43.028324,183.292068 
	C42.620995,183.507523 42.464592,184.197342 42.463966,184.862213 
z"/>
<path fill="#070102" opacity="1.000000" stroke="none" 
	d="
M206.084778,158.504501 
	C206.948044,157.562042 207.573715,156.847382 208.199387,156.132736 
	C208.066422,155.866806 207.933441,155.600861 207.800476,155.334930 
	C206.013290,155.877075 204.252853,156.579773 202.426056,156.884033 
	C201.672760,157.009491 200.533493,156.476639 200.035919,155.864380 
	C199.730881,155.488998 200.134247,153.833374 200.519760,153.712830 
	C203.617676,152.744095 206.757721,151.703918 209.953964,151.390915 
	C210.825836,151.305542 212.737747,153.590454 212.779236,154.834045 
	C212.900269,158.462097 212.370895,162.119629 211.966293,165.751099 
	C211.882019,166.507416 211.402267,167.619904 210.821960,167.847641 
	C208.874115,168.612076 206.798447,169.050766 204.771698,169.614136 
	C205.460358,168.022369 206.149033,166.430603 207.092422,164.250076 
	C205.812393,163.251740 201.378342,162.103546 206.084778,158.504501 
z"/>
<path fill="#0A0203" opacity="1.000000" stroke="none" 
	d="
M183.525009,301.303650 
	C182.007004,310.578979 180.378326,311.930206 171.565140,311.904144 
	C170.487411,311.901001 169.392334,312.757568 168.332520,312.701508 
	C165.890121,312.572205 163.359222,312.434418 161.084198,311.656647 
	C160.183594,311.348755 159.866898,309.333008 159.284332,308.094879 
	C160.564072,308.109650 161.843781,308.125305 163.123520,308.138947 
	C164.461685,308.153198 165.807907,308.262970 167.136017,308.153748 
	C168.733276,308.022339 170.471832,307.160828 171.874969,307.565735 
	C176.513184,308.904205 178.274399,306.732178 179.215729,302.639130 
	C180.170959,298.485565 180.581314,298.420319 183.525009,301.303650 
z"/>
<path fill="#080202" opacity="1.000000" stroke="none" 
	d="
M25.311081,242.189880 
	C27.773388,240.955261 29.951029,239.812515 32.266506,239.155579 
	C32.952129,238.961060 34.026127,240.135376 34.922153,240.682449 
	C34.261303,241.451279 33.739170,242.468430 32.908150,242.932602 
	C31.552361,243.689896 29.995058,244.086426 26.720070,245.307083 
	C35.054703,246.517136 33.153313,249.844543 30.614941,253.018677 
	C32.223198,253.943161 33.599937,254.734573 34.976685,255.525986 
	C34.335434,256.383911 33.658440,257.991333 33.059460,257.962769 
	C31.056807,257.867279 27.330793,257.020538 27.356007,256.754517 
	C27.829901,251.754898 21.156252,247.871674 25.311081,242.189880 
z"/>
<path fill="#0A0203" opacity="1.000000" stroke="none" 
	d="
M93.047470,75.967316 
	C94.738487,74.892647 96.105042,73.749672 97.647758,73.412338 
	C99.081535,73.098831 100.703148,73.644379 102.242065,73.811707 
	C101.395172,74.905312 100.293892,75.887939 99.757668,77.117081 
	C98.822220,79.261314 98.234695,81.557335 97.445343,83.960228 
	C97.494164,84.015915 97.664719,84.303688 97.914207,84.479385 
	C99.190041,85.377914 100.486237,86.247536 101.775314,87.127266 
	C100.196907,87.699341 98.612099,88.758942 97.041481,88.738281 
	C94.102654,88.699646 91.909782,87.199623 92.052574,83.838509 
	C92.160271,81.303177 92.540787,78.779427 93.047470,75.967316 
z"/>
<path fill="#0C0203" opacity="1.000000" stroke="none" 
	d="
M61.304024,290.571594 
	C61.141525,292.673737 60.710922,294.509644 60.404186,295.817444 
	C63.668373,297.797699 66.804047,299.567810 69.718315,301.648071 
	C70.053917,301.887634 69.513817,304.263763 68.751236,304.931335 
	C67.410065,306.105377 57.141808,302.403412 56.647385,300.050629 
	C56.071625,297.310760 57.032917,294.169617 57.740452,291.304657 
	C57.881130,290.735016 59.889042,290.626495 61.304024,290.571594 
z"/>
<path fill="#0C0204" opacity="1.000000" stroke="none" 
	d="
M72.995399,197.965637 
	C74.400848,198.506943 75.421532,199.080475 76.442223,199.654007 
	C75.707535,200.407959 75.057289,201.278854 74.216545,201.885925 
	C73.189751,202.627350 72.003044,203.147308 71.353600,204.849274 
	C72.246964,204.771149 73.152641,204.562881 74.030754,204.645981 
	C75.287880,204.764954 76.524864,205.096756 77.770454,205.337677 
	C77.000557,206.485245 76.479843,208.016617 75.414116,208.708542 
	C72.197983,210.796600 68.346451,209.678360 66.992294,206.553589 
	C65.407234,202.895996 67.372368,199.903427 72.995399,197.965637 
z"/>
<path fill="#090103" opacity="1.000000" stroke="none" 
	d="
M130.968933,43.182442 
	C131.166016,45.741596 131.544327,47.890839 131.405701,50.006210 
	C131.336960,51.055122 130.317673,52.041737 129.728424,53.056534 
	C128.935440,52.216331 127.631462,51.473183 127.449821,50.516861 
	C126.992050,48.106705 126.820625,45.586926 126.971619,43.138042 
	C127.056023,41.769104 128.012024,40.453907 128.575272,39.114487 
	C129.362488,40.329182 130.149704,41.543873 130.968933,43.182442 
z"/>
</svg>