<svg width="20" height="18" viewBox="0 0 20 18" fill="none" xmlns="http://www.w3.org/2000/svg">
<path d="M1.83594 10.7578C0.664062 9.66406 0 8.10156 0 6.46094V6.26562C0 3.53125 1.95312 1.1875 4.64844 0.757812C6.44531 0.445312 8.24219 1.03125 9.53125 2.28125L10 2.75L10.4688 2.28125C11.7188 1.03125 13.5547 0.445312 15.3125 0.757812C18.0078 1.1875 20 3.53125 20 6.26562V6.46094C20 8.10156 19.2969 9.66406 18.125 10.7578L11.0547 17.3594C10.7812 17.6328 10.3906 17.75 10 17.75C9.57031 17.75 9.17969 17.6328 8.90625 17.3594L1.83594 10.7578Z" fill="#0A0A0A"/>
</svg>
